HIERARCHY
ROOT Hips
{
	OFFSET 0.000000 0.000000 0.000000
	CHANNELS 6 Xposition Yposition Zposition Zrotation Yrotation Xrotation 
	JOINT LHipJoint
	{
		OFFSET 0.000000 0.000000 0.000000
		CHANNELS 3 Zrotation Yrotation Xrotation
		JOINT LeftUpLeg
		{
			OFFSET 1.363060 -1.794630 0.839290
			CHANNELS 3 Zrotation Yrotation Xrotation
			JOINT LeftLeg
			{
				OFFSET 2.448110 -6.726130 0.000000
				CHANNELS 3 Zrotation Yrotation Xrotation
				JOINT LeftFoot
				{
					OFFSET 2.562200 -7.039590 0.000000
					CHANNELS 3 Zrotation Yrotation Xrotation
					JOINT LeftToeBase
					{
						OFFSET 0.157640 -0.433110 2.322550
						CHANNELS 3 Zrotation Yrotation Xrotation
						End Site
						{
							OFFSET 0.000000 0.000000 0.000000
						}
					}
				}
			}
		}
	}
	JOINT RHipJoint
	{
		OFFSET 0.000000 0.000000 0.000000
		CHANNELS 3 Zrotation Yrotation Xrotation
		JOINT RightUpLeg
		{
			OFFSET -1.305520 -1.794630 0.839290
			CHANNELS 3 Zrotation Yrotation Xrotation
			JOINT RightLeg
			{
				OFFSET -2.542530 -6.985550 0.000000
				CHANNELS 3 Zrotation Yrotation Xrotation
				JOINT RightFoot
				{
					OFFSET -2.568260 -7.056230 0.000000
					CHANNELS 3 Zrotation Yrotation Xrotation
					JOINT RightToeBase
					{
						OFFSET -0.164730 -0.452590 2.363150
						CHANNELS 3 Zrotation Yrotation Xrotation
						End Site
						{
							OFFSET 0.000000 0.000000 0.000000
						}
					}
				}
			}
		}
	}
	JOINT LowerBack
	{
		OFFSET 0.000000 0.000000 0.000000
		CHANNELS 3 Zrotation Yrotation Xrotation
		JOINT Spine
		{
			OFFSET 0.028270 2.035590 -0.193380
			CHANNELS 3 Zrotation Yrotation Xrotation
			JOINT Spine1
			{
				OFFSET 0.056720 2.048850 -0.042750
				CHANNELS 3 Zrotation Yrotation Xrotation
				JOINT Neck
				{
					OFFSET 0.000000 0.000000 0.000000
					CHANNELS 3 Zrotation Yrotation Xrotation
					JOINT Neck1
					{
						OFFSET -0.054170 1.746240 0.172020
						CHANNELS 3 Zrotation Yrotation Xrotation
						JOINT Head
						{
							OFFSET 0.104070 1.761360 -0.123970
							CHANNELS 3 Zrotation Yrotation Xrotation
							End Site
							{
								OFFSET 0.000000 0.000000 0.000000
							}
						}
					}
				}
				JOINT LeftShoulder
				{
					OFFSET 0.000000 0.000000 0.000000
					CHANNELS 3 Zrotation Yrotation Xrotation
					JOINT LeftArm
					{
						OFFSET 3.362410 1.200890 -0.311210
						CHANNELS 3 Zrotation Yrotation Xrotation
						JOINT LeftForeArm
						{
							OFFSET 4.983000 -0.000000 -0.000000
							CHANNELS 3 Zrotation Yrotation Xrotation
							JOINT LeftHand
							{
								OFFSET 3.483560 -0.000000 -0.000000
								CHANNELS 3 Zrotation Yrotation Xrotation
								JOINT LeftFingerBase
								{
									OFFSET 0.000000 0.000000 0.000000
									CHANNELS 3 Zrotation Yrotation Xrotation
									JOINT LeftHandIndex1
									{
										OFFSET 0.715260 -0.000000 -0.000000
										CHANNELS 3 Zrotation Yrotation Xrotation
										End Site
										{
											OFFSET 0.000000 0.000000 0.000000
										}
									}
								}
								JOINT LThumb
								{
									OFFSET 0.000000 0.000000 0.000000
									CHANNELS 3 Zrotation Yrotation Xrotation
									End Site
									{
										OFFSET 0.000000 0.000000 0.000000
									}
								}
							}
						}
					}
				}
				JOINT RightShoulder
				{
					OFFSET 0.000000 0.000000 0.000000
					CHANNELS 3 Zrotation Yrotation Xrotation
					JOINT RightArm
					{
						OFFSET -3.136600 1.374050 -0.404650
						CHANNELS 3 Zrotation Yrotation Xrotation
						JOINT RightForeArm
						{
							OFFSET -5.241900 -0.000000 -0.000000
							CHANNELS 3 Zrotation Yrotation Xrotation
							JOINT RightHand
							{
								OFFSET -3.444170 -0.000000 -0.000000
								CHANNELS 3 Zrotation Yrotation Xrotation
								JOINT RightFingerBase
								{
									OFFSET 0.000000 0.000000 0.000000
									CHANNELS 3 Zrotation Yrotation Xrotation
									JOINT RightHandIndex1
									{
										OFFSET -0.622530 -0.000000 -0.000000
										CHANNELS 3 Zrotation Yrotation Xrotation
										End Site
										{
											OFFSET 0.000000 0.000000 0.000000
										}
									}
								}
								JOINT RThumb
								{
									OFFSET 0.000000 0.000000 0.000000
									CHANNELS 3 Zrotation Yrotation Xrotation
									End Site
									{
										OFFSET 0.000000 0.000000 0.000000
									}
								}
							}
						}
					}
				}
			}
		}
	}
}
MOTION
Frames: 6
Frame Time: 0.033333
-0.389002 16.730054 -0.389002 -6.390569 4.103171 2.023978 -2.445875 10.984852 0.935007 -10.678202 -4.786677 -9.847417 -5.718682 -14.060166 -35.743943 2.090606 19.370749 42.153945 0.000000 0.000000 0.000000 -2.850488 -1.646882 -19.131287 27.609962 -10.157991 14.905620 7.379521 -3.067311 1.343190 0.958192 8.624044 -31.405071 0.000000 0.000000 0.000000 -1.001351 -3.004306 20.450591 5.717766 -0.273252 -6.679252 4.183891 -0.737247 0.242001 2.735266 -0.476135 -7.645823 1.388988 0.016642 1.247107 0.000000 0.000000 0.000000 9.143600 7.842740 9.991238 -73.006892 -7.593885 8.604152 1.844252 -88.313674 -0.221276 7.100709 -15.337096 -0.125546 7.269788 -15.278354 0.000000 0.000000 0.000000 0.000000 0.000000 0.000000 0.000000 -7.838514 -9.467731 8.069355 67.960196 8.188704 16.910134 22.050729 70.241174 0.310197 -0.294533 11.476401 0.153216 -0.310343 11.479494 0.000000 0.000000 0.000000 0.000000 0.000000 0.000000 0.000000 
-0.359239 16.774430 -0.211300 -6.047468 3.215527 2.418777 -2.230013 11.488261 0.922370 -11.395728 -4.647773 -9.797504 -5.680039 -13.656463 -35.037280 1.695305 18.443633 40.266646 0.000000 0.000000 0.000000 -2.732469 -3.278848 -18.218666 28.034372 -8.562076 13.206422 6.520502 -3.566177 4.771583 0.592988 9.751922 -32.216613 0.000000 0.000000 0.000000 -0.975778 -2.662000 19.875566 5.336408 -0.147557 -6.263768 3.976306 -0.528874 -0.011584 2.454815 -0.444357 -7.286380 1.523720 0.011674 1.473999 0.000000 0.000000 0.000000 8.959920 8.055580 9.938670 -72.861245 -7.658837 8.654541 2.055860 -88.363284 -0.223270 7.156404 -15.345306 -0.126692 7.326668 -15.285685 0.000000 0.000000 0.000000 0.000000 0.000000 0.000000 0.000000 -7.557719 -9.559698 7.938250 67.886998 8.043074 17.381355 21.472887 71.271869 0.321842 -0.351799 11.654375 0.158925 -0.368294 11.657498 0.000000 0.000000 0.000000 0.000000 0.000000 0.000000 0.000000 
-0.327269 16.820625 -0.034146 -5.681708 2.349533 2.850471 -2.045754 11.971022 0.869448 -12.130820 -4.530072 -9.777894 -5.646343 -13.231761 -34.229331 1.327675 17.482080 38.286500 0.000000 0.000000 0.000000 -2.539017 -4.851644 -17.204394 28.348002 -6.846937 11.384254 5.555450 -4.015037 8.147636 0.258377 10.756587 -32.892417 0.000000 0.000000 0.000000 -0.969456 -2.326048 19.270705 4.952738 -0.026084 -5.860218 3.772362 -0.328565 -0.273659 2.180308 -0.412344 -6.927955 1.654513 0.005292 1.703524 0.000000 0.000000 0.000000 8.777597 8.262495 9.887432 -72.715445 -7.723453 8.710386 2.261128 -88.413427 -0.225099 7.210062 -15.353308 -0.127753 7.381480 -15.292829 0.000000 0.000000 0.000000 0.000000 0.000000 0.000000 0.000000 -7.280532 -9.659038 7.802170 67.813010 7.894937 17.841320 20.876820 72.285653 0.333233 -0.412631 11.827974 0.164503 -0.429857 11.831112 0.000000 0.000000 0.000000 0.000000 0.000000 0.000000 0.000000 
-0.293147 16.868191 0.142063 -5.297006 1.521592 3.314042 -1.893190 12.429515 0.775923 -12.879371 -4.438228 -9.789464 -5.622797 -12.787107 -33.317533 0.990856 16.490699 36.222192 0.000000 0.000000 0.000000 -2.280479 -6.341524 -16.098470 28.532458 -5.037162 9.459163 4.527142 -4.399755 11.420514 -0.037685 11.629640 -33.429448 0.000000 0.000000 0.000000 -0.977057 -2.002436 18.640126 4.568780 0.087046 -5.468908 3.571712 -0.140432 -0.544320 1.911889 -0.380219 -6.570555 1.780972 -0.002460 1.935167 0.000000 0.000000 0.000000 8.596445 8.461632 9.837503 -72.569712 -7.788379 8.771784 2.460107 -88.463958 -0.226760 7.261676 -15.361082 -0.128727 7.434219 -15.299768 0.000000 0.000000 0.000000 0.000000 0.000000 0.000000 0.000000 -7.007473 -9.767769 7.660881 67.738326 7.744048 18.289142 20.264244 73.282280 0.344350 -0.476902 11.996961 0.169939 -0.494907 12.000097 0.000000 0.000000 0.000000 0.000000 0.000000 0.000000 0.000000 
-0.257443 16.916722 0.316970 -4.897402 0.746490 3.802796 -1.771725 12.861599 0.643715 -13.636411 -4.376385 -9.832997 -5.609522 -12.323551 -32.301200 0.686556 15.473981 34.085520 0.000000 0.000000 0.000000 -1.968768 -7.728652 -14.915888 28.569834 -3.165590 7.454430 3.487241 -4.716065 14.545213 -0.290276 12.367911 -33.826782 0.000000 0.000000 0.000000 -0.993037 -1.696452 17.989712 4.186552 0.188122 -5.089527 3.374016 0.031840 -0.823543 1.649721 -0.348090 -6.214114 1.902771 -0.011522 2.168383 0.000000 0.000000 0.000000 8.416250 8.651335 9.788853 -72.424260 -7.854207 8.838803 2.652810 -88.514716 -0.228249 7.311243 -15.368619 -0.129614 7.484880 -15.306495 0.000000 0.000000 0.000000 0.000000 0.000000 0.000000 0.000000 -6.739064 -9.887646 7.514172 67.663066 7.590277 18.723976 19.636902 74.261530 0.355177 -0.544468 12.161119 0.175226 -0.563297 12.164233 0.000000 0.000000 0.000000 0.000000 0.000000 0.000000 0.000000 
-0.217652 16.967207 0.492872 -4.497083 -0.006786 4.273395 -1.663072 13.331655 0.523383 -14.405640 -4.365006 -9.935379 -5.631533 -11.828516 -31.122827 0.413779 14.399805 31.833275 0.000000 0.000000 0.000000 -1.601151 -9.114739 -13.552751 28.485358 -1.171341 5.299704 2.408531 -4.940813 17.592906 -0.512441 13.017087 -34.074307 0.000000 0.000000 0.000000 -1.047776 -1.417229 17.100465 3.984761 0.263500 -4.639318 3.189074 0.179743 -1.059410 1.772133 -0.373489 -6.101986 1.704790 -0.016204 2.063238 0.000000 0.000000 0.000000 7.968791 8.732764 9.799381 -72.283963 -7.717079 9.081891 2.549977 -88.360687 -0.216126 7.279910 -15.396266 -0.123533 7.452799 -15.334560 0.000000 0.000000 0.000000 0.000000 0.000000 0.000000 0.000000 -6.571915 -9.804419 7.539184 67.557961 7.435561 18.880293 19.104704 74.885510 0.359445 -0.617646 12.259972 0.177264 -0.637435 12.262968 0.000000 0.000000 0.000000 0.000000 0.000000 0.000000 0.000000 
